<svg width="47.99999999999999" height="47.99999999999999" xmlns="http://www.w3.org/2000/svg">

 <g>
  <title>background</title>
  <rect fill="none" id="canvas_background" height="402" width="582" y="-1" x="-1"/>
 </g>
 <g>
  <title>Layer 1</title>
  <path fill="#778ca3" id="svg_1" d="m24,6c-9.94,0 -18,8.06 -18,18s8.06,18 18,18c1.66,0 3,-1.34 3,-3c0,-0.78 -0.29,-1.48 -0.78,-2.01c-0.47,-0.53 -0.75,-1.22 -0.75,-1.99c0,-1.66 1.34,-3 3,-3l3.53,0c5.52,0 10,-4.48 10,-10c0,-8.84 -8.06,-16 -18,-16zm-11,18c-1.66,0 -3,-1.34 -3,-3s1.34,-3 3,-3s3,1.34 3,3s-1.34,3 -3,3zm6,-8c-1.66,0 -3,-1.34 -3,-3s1.34,-3 3,-3s3,1.34 3,3s-1.34,3 -3,3zm10,0c-1.66,0 -3,-1.34 -3,-3s1.34,-3 3,-3s3,1.34 3,3s-1.34,3 -3,3zm6,8c-1.66,0 -3,-1.34 -3,-3s1.34,-3 3,-3s3,1.34 3,3s-1.34,3 -3,3z"/>
  <path id="svg_2" fill="none" d="m12.795458,11.952643l48,0l0,48l-48,0l0,-48z"/>
 </g>
</svg>